<?xml version="1.0" encoding="utf-8"?>
<!-- Generator: Adobe Illustrator 19.2.1, SVG Export Plug-In . SVG Version: 6.00 Build 0)  -->
<!DOCTYPE svg PUBLIC "-//W3C//DTD SVG 1.1//EN" "http://www.w3.org/Graphics/SVG/1.1/DTD/svg11.dtd">
<svg version="1.1" id="Layer_1" xmlns="http://www.w3.org/2000/svg" xmlns:xlink="http://www.w3.org/1999/xlink" x="0px" y="0px"
	 viewBox="0 0 100 100" style="enable-background:new 0 0 100 100;" xml:space="preserve">
<style type="text/css">
	.st0{display:none;}
	.st1{display:inline;}
</style>
<g class="st0">
	<path class="st1" d="M50.2,86.5c-6.6-0.2-12.8-1.8-18.7-4.7C18.9,75.7,9,66.5,1.6,54.7c-1.8-2.9-2.1-5.7-0.2-8.7
		c9.8-15.3,22.4-26.8,40.4-31.4c8.5-2.2,16.7-0.9,24.6,2.6c13.2,5.8,23.4,15.2,31.4,27.1c2.8,4.1,2.8,7.9,0,12
		C88.1,70.4,75.7,81,58.6,85.3C55.9,86,53,86.1,50.2,86.5z M76.3,50.2c0.1-14.7-11.5-26.5-26.1-26.6c-14.5-0.1-26.5,11.8-26.6,26.3
		c-0.1,14.3,11.8,26.3,26.1,26.4C64.5,76.3,76.2,64.8,76.3,50.2z"/>
	<path class="st1" d="M64.7,50.1c0,8.4-6.5,14.7-15,14.6c-7.9-0.1-14.5-6.8-14.4-14.8c0.1-8.1,6.7-14.6,14.9-14.6
		C58.3,35.3,64.8,41.9,64.7,50.1z"/>
</g>
<g>
	<path d="M72,26.5c-6.7-6.2-14.3-9.1-23-8.7c-13.7,0.7-23.5,7.4-28.7,20.2c-1.2,3-2.7,4.2-6,3.9c-2.8-0.3-5.6,0-8.4,0
		c-2.8,0-3.5-1-2.9-3.6C7.9,17.2,27.3,1.8,48.9,1.7c12.8-0.1,23.9,4.1,33.4,12.5c0.3,0.2,0.5,0.4,1.2,0.9c2.4-2.5,4.8-5.1,7.2-7.6
		c1.4-1.6,3.1-2.3,5.1-1.4c1.8,0.8,2.4,2.5,2.4,4.5c-0.1,8.8,0,17.6,0,26.5c0,3.2-1.6,4.8-4.8,4.8c-8.9,0-17.8,0-26.7,0
		c-2,0-3.7-0.7-4.4-2.6c-0.7-1.8-0.1-3.4,1.3-4.7C66.4,32,69,29.3,72,26.5z"/>
	<path d="M16.5,84.8c-2.6,2.7-5.1,5.1-7.5,7.6C7.5,94,5.9,94.6,4,93.8c-1.8-0.8-2.3-2.4-2.3-4.3c0-8.9,0-17.8,0-26.7
		c0-3.5,1.4-4.8,5-4.9c8.6,0,17.3,0,25.9,0c2.2,0,3.9,0.5,4.9,2.7c1,2.2-0.3,3.6-1.7,5c-2.6,2.5-5.1,5-7.8,7.7
		c4.4,4.4,9.5,7,15.3,8.1c15.9,3.1,30.3-4.7,36.4-19.8c1.1-2.8,2.5-4,5.5-3.7c2.8,0.2,5.6,0,8.4,0.1c2.6,0,3.3,1,2.7,3.4
		c-5.5,19.6-17.9,32.3-38.1,36.1c-14.2,2.7-27.1-0.9-38.5-9.9C18.7,86.8,17.7,85.9,16.5,84.8z"/>
</g>
</svg>
